<svg xmlns="http://www.w3.org/2000/svg" viewBox="0 0 618.73 80.53"><defs><style>.cls-1{fill:#ed1c24;}.cls-2{fill:#0b1a3a;}</style></defs><g id="Layer_2" data-name="Layer 2"><g id="Layer_1-2" data-name="Layer 1"><path class="cls-1" d="M38,24.05q4.38,4.71,3.08,14.21L37.47,64.35H28l.74-5.41a14.27,14.27,0,0,1-5.89,4.45,21.52,21.52,0,0,1-8.47,1.55,18.14,18.14,0,0,1-8.23-1.71,10.82,10.82,0,0,1-4.95-4.75,11.37,11.37,0,0,1-1-6.88A14,14,0,0,1,5.77,42c3.2-2.41,7.9-3.63,14.07-3.63H31l.09-.66c.43-3.11-.15-5.5-1.72-7.17S25.21,28,21.67,28a23.94,23.94,0,0,0-7.3,1.17A20.68,20.68,0,0,0,8,32.43L5.1,24.84a28.16,28.16,0,0,1,8.7-4.08,36.92,36.92,0,0,1,10.27-1.42Q33.58,19.34,38,24.05ZM24.45,55.56a11.81,11.81,0,0,0,4.86-5.13L30,45.27H19.62q-8.7,0-9.52,5.91a4.68,4.68,0,0,0,1.56,4.5q2,1.66,5.82,1.67A13.92,13.92,0,0,0,24.45,55.56Z"/><path class="cls-1" d="M87.22,22.18a16.41,16.41,0,0,1,6.68,8A23,23,0,0,1,95.09,42.1a27.66,27.66,0,0,1-4.47,12A24.38,24.38,0,0,1,70.11,64.94q-8.7,0-13-6l-3,21.59H44.11l8.34-60.69H62l-.8,5.83a19,19,0,0,1,6.81-4.75,22,22,0,0,1,8.32-1.58A20.06,20.06,0,0,1,87.22,22.18Zm-7.34,30a16.3,16.3,0,0,0,5-10.08q.86-6.26-2.2-10.09A10.41,10.41,0,0,0,74,28.18a14,14,0,0,0-6.76,1.7A15,15,0,0,0,62,34.76a17.1,17.1,0,0,0-2.7,7.34A14.35,14.35,0,0,0,60,49.43a10,10,0,0,0,3.92,4.88A11.43,11.43,0,0,0,70.21,56,13.71,13.71,0,0,0,79.88,52.18Z"/><path class="cls-1" d="M138.48,22.18a16.41,16.41,0,0,1,6.68,8,22.85,22.85,0,0,1,1.18,11.92,27.52,27.52,0,0,1-4.46,12,24.38,24.38,0,0,1-20.51,10.88q-8.72,0-13-6l-3,21.59H95.37l8.34-60.69h9.59l-.81,5.83a19.08,19.08,0,0,1,6.82-4.75,21.92,21.92,0,0,1,8.32-1.58A20.06,20.06,0,0,1,138.48,22.18Zm-7.34,30a16.3,16.3,0,0,0,5-10.08q.85-6.26-2.2-10.09a10.42,10.42,0,0,0-8.62-3.83,14,14,0,0,0-6.76,1.7,14.87,14.87,0,0,0-5.27,4.88,17.1,17.1,0,0,0-2.7,7.34,14.35,14.35,0,0,0,.69,7.33,9.94,9.94,0,0,0,3.92,4.88A11.42,11.42,0,0,0,121.46,56,13.74,13.74,0,0,0,131.14,52.18Z"/><path class="cls-1" d="M157.34,2.5h10.08l-8.5,61.85H148.85Z"/><path class="cls-1" d="M174.22,19.84H184.3l-6.12,44.51H168.11ZM176,10.71a5.23,5.23,0,0,1-1.24-4.46,6.92,6.92,0,0,1,2.46-4.46A7.25,7.25,0,0,1,182,0a5.72,5.72,0,0,1,4.36,1.71A5,5,0,0,1,187.65,6a7.46,7.46,0,0,1-2.45,4.63,7,7,0,0,1-4.89,1.87A5.53,5.53,0,0,1,176,10.71Z"/><path class="cls-1" d="M223.89,24.05q4.4,4.71,3.09,14.21l-3.59,26.09h-9.51l.75-5.41a14.4,14.4,0,0,1-5.89,4.45,21.57,21.57,0,0,1-8.48,1.55A18.16,18.16,0,0,1,192,63.23a10.8,10.8,0,0,1-4.94-4.75,11.37,11.37,0,0,1-1-6.88A14,14,0,0,1,191.69,42c3.21-2.41,7.9-3.63,14.08-3.63h11.12l.09-.66q.65-4.66-1.71-7.17T207.59,28a23.83,23.83,0,0,0-7.29,1.17,20.57,20.57,0,0,0-6.37,3.25L191,24.84a28.16,28.16,0,0,1,8.7-4.08A37,37,0,0,1,210,19.34Q219.5,19.34,223.89,24.05ZM210.38,55.56a11.85,11.85,0,0,0,4.85-5.13l.71-5.16H205.55q-8.72,0-9.52,5.91a4.68,4.68,0,0,0,1.56,4.5q1.93,1.66,5.81,1.67A14,14,0,0,0,210.38,55.56Z"/><path class="cls-1" d="M275.24,24.26q4.25,4.92,2.91,14.59l-3.5,25.5H264.58l3.32-24.17c.53-3.89.05-6.82-1.46-8.8s-3.89-2.95-7.17-2.95A13.07,13.07,0,0,0,250,31.88q-3.69,3.47-4.59,10l-3.09,22.5H232.26l6.11-44.51H248l-.79,5.75a19.26,19.26,0,0,1,6.93-4.67,23.73,23.73,0,0,1,8.76-1.58Q271,19.34,275.24,24.26Z"/><path class="cls-1" d="M291.89,62a17.21,17.21,0,0,1-7.18-8.13,21.61,21.61,0,0,1-1.36-11.79,25.9,25.9,0,0,1,14-19.84,26.75,26.75,0,0,1,12.45-2.92A20.53,20.53,0,0,1,320.56,22a14,14,0,0,1,6.16,7.67l-8.38,4.66a10.18,10.18,0,0,0-4-4.62,11.16,11.16,0,0,0-5.87-1.54A14.31,14.31,0,0,0,298.6,32a16,16,0,0,0-5.1,10.13q-.87,6.33,2.28,10.13T304.65,56a13.52,13.52,0,0,0,6.29-1.55,15.09,15.09,0,0,0,5.27-4.62l7.1,4.67A21.84,21.84,0,0,1,315,62.23a24.28,24.28,0,0,1-11.46,2.71A22.39,22.39,0,0,1,291.89,62Z"/><path class="cls-1" d="M368.89,45.43H335.12a10.32,10.32,0,0,0,3.56,7.8,13.23,13.23,0,0,0,8.91,2.87,17.65,17.65,0,0,0,12.35-4.83l4.52,6.42a22,22,0,0,1-8.08,5.41,27.7,27.7,0,0,1-10.24,1.84A23.7,23.7,0,0,1,334,62a16.83,16.83,0,0,1-7.22-8.13A21.8,21.8,0,0,1,325.5,42.1,26.75,26.75,0,0,1,330,30.38a25.17,25.17,0,0,1,9-8.12,24.76,24.76,0,0,1,11.85-2.92,19.9,19.9,0,0,1,10.85,2.88,16.37,16.37,0,0,1,6.62,8.08,23.66,23.66,0,0,1,1.13,12.05C369.37,43.07,369.18,44.1,368.89,45.43ZM341.14,30.64A14.84,14.84,0,0,0,336,38.51H360.4a10.7,10.7,0,0,0-2.87-7.83,10.34,10.34,0,0,0-7.81-3A13.41,13.41,0,0,0,341.14,30.64Z"/><path class="cls-1" d="M375.27,63.52a21.43,21.43,0,0,1-7.49-3.59l5-7.91a20.84,20.84,0,0,0,6.53,3.21,26.58,26.58,0,0,0,7.85,1.2q9,0,9.7-4.91A2.81,2.81,0,0,0,395,48.26a35.58,35.58,0,0,0-7.13-1.75,53.3,53.3,0,0,1-8.41-1.91,11,11,0,0,1-5.28-3.8c-1.39-1.8-1.86-4.32-1.42-7.54a14.14,14.14,0,0,1,6.51-10.13q5.64-3.79,14.34-3.79a37,37,0,0,1,8.72,1,21.16,21.16,0,0,1,6.88,2.8l-5,7.91a21,21,0,0,0-11.87-3.33,14.48,14.48,0,0,0-6.92,1.37,4.92,4.92,0,0,0-2.8,3.63,3.09,3.09,0,0,0,2,3.54,34.13,34.13,0,0,0,7.35,2,52.85,52.85,0,0,1,8.2,1.92,11,11,0,0,1,5.18,3.67c1.35,1.72,1.8,4.16,1.37,7.33a13.83,13.83,0,0,1-6.62,10q-5.74,3.75-14.78,3.75A35,35,0,0,1,375.27,63.52Z"/><path class="cls-2" d="M459.08,2.5l-8.5,61.85h-7.41l1-7a20.57,20.57,0,0,1-7.29,5.59,21.38,21.38,0,0,1-9,1.91A19.77,19.77,0,0,1,417.14,62a16.41,16.41,0,0,1-6.61-8,22.85,22.85,0,0,1-1.16-11.8,27,27,0,0,1,4.4-11.75,24.58,24.58,0,0,1,8.78-7.92,24.07,24.07,0,0,1,11.51-2.83,18.22,18.22,0,0,1,8.22,1.79A13.57,13.57,0,0,1,448,26.84L451.34,2.5Zm-22,53.39a16.53,16.53,0,0,0,5.91-5.5,19.28,19.28,0,0,0,3-8.13,16.2,16.2,0,0,0-.73-8.12,10.93,10.93,0,0,0-4.41-5.46,13,13,0,0,0-7.07-1.92,15.73,15.73,0,0,0-7.64,1.92,16.73,16.73,0,0,0-5.91,5.46,18.94,18.94,0,0,0-3,8.12,15.88,15.88,0,0,0,.78,8.13,11.38,11.38,0,0,0,4.4,5.5,12.68,12.68,0,0,0,7.11,2A15.54,15.54,0,0,0,437.08,55.89Z"/><path class="cls-2" d="M466.49,20.17h7.73l-6.06,44.18h-7.74Zm1.49-10a4.47,4.47,0,0,1-1-3.67,6,6,0,0,1,2-3.71,5.77,5.77,0,0,1,4-1.54,4.5,4.5,0,0,1,3.55,1.46,4.31,4.31,0,0,1,1,3.62,6,6,0,0,1-2,3.8,5.69,5.69,0,0,1-4,1.54A4.42,4.42,0,0,1,468,10.17Z"/><path class="cls-2" d="M497.3,21.76a22.69,22.69,0,0,1,9.86-2l-1.06,7.75a13.66,13.66,0,0,0-1.76-.08,14.62,14.62,0,0,0-10.41,3.87q-4.12,3.89-5.1,11.05l-3,22h-7.74l6.07-44.18h7.41l-1,7.42A16.38,16.38,0,0,1,497.3,21.76Z"/><path class="cls-2" d="M546.42,44.93H511.76a12.1,12.1,0,0,0,3.67,9.38q3.75,3.54,10,3.54a18,18,0,0,0,13.07-5.33l3.56,5.17a22.77,22.77,0,0,1-8,5.33,26.31,26.31,0,0,1-9.88,1.83A22.39,22.39,0,0,1,512.65,62a16.5,16.5,0,0,1-7-8,22.17,22.17,0,0,1-1.26-11.67,27.07,27.07,0,0,1,4.37-11.58,24.81,24.81,0,0,1,8.77-8,23.47,23.47,0,0,1,11.39-2.87,18.9,18.9,0,0,1,10.53,2.87,16.38,16.38,0,0,1,6.39,8.05,23.69,23.69,0,0,1,1.07,11.83A24.6,24.6,0,0,1,546.42,44.93ZM518.2,30a16.93,16.93,0,0,0-5.65,9.17H540a12.55,12.55,0,0,0-3.14-9.13A11.43,11.43,0,0,0,528,26.51,14.94,14.94,0,0,0,518.2,30Z"/><path class="cls-2" d="M557.1,61.93a17.1,17.1,0,0,1-6.91-8,21.6,21.6,0,0,1-1.31-11.63,26.11,26.11,0,0,1,4.5-11.62,25.28,25.28,0,0,1,9.12-8,25.71,25.71,0,0,1,12-2.87,19.72,19.72,0,0,1,10,2.42,13.83,13.83,0,0,1,6.09,7l-6.42,3.92a10.89,10.89,0,0,0-4.34-4.76,12.72,12.72,0,0,0-6.39-1.58,16.38,16.38,0,0,0-13.79,7.38,18.94,18.94,0,0,0-3,8.12,16,16,0,0,0,.76,8.21A11,11,0,0,0,562,55.93a13.5,13.5,0,0,0,7.28,1.92,15.24,15.24,0,0,0,6.82-1.58,16.33,16.33,0,0,0,5.65-4.75l5.36,3.83a20.9,20.9,0,0,1-8,7,23.34,23.34,0,0,1-10.69,2.46A20.9,20.9,0,0,1,557.1,61.93Z"/><path class="cls-2" d="M615.91,61.77a13.37,13.37,0,0,1-4.5,2.29,18,18,0,0,1-5.27.79q-6.45,0-9.5-3.58T594.5,51l3.33-24.26h-7.25l.9-6.59h7.26l1.32-9.67h7.74l-1.33,9.67h12.26l-.91,6.59H605.57l-3.29,23.92c-.32,2.39,0,4.23,1,5.5A5.54,5.54,0,0,0,608,58.1,10.26,10.26,0,0,0,614.28,56Z"/></g></g></svg>